<?xml version="1.0" standalone="no"?>
<!DOCTYPE svg PUBLIC "-//W3C//DTD SVG 20010904//EN"
 "http://www.w3.org/TR/2001/REC-SVG-20010904/DTD/svg10.dtd">
<svg version="1.0" xmlns="http://www.w3.org/2000/svg"
 width="361.000000pt" height="331.000000pt" viewBox="0 0 361.000000 331.000000"
 preserveAspectRatio="xMidYMid meet">

<g transform="translate(0.000000,331.000000) scale(0.100000,-0.100000)"
fill="#000000" stroke="none">
<path d="M1678 3168 c7 -7 12 -42 12 -85 0 -70 -1 -73 -24 -73 -29 0 -74 66
-57 83 15 15 14 50 -1 65 -7 7 -34 12 -60 12 l-48 0 15 -24 c10 -14 16 -50 18
-94 2 -71 2 -72 30 -72 29 0 34 9 16 27 -6 6 -9 23 -7 39 3 29 3 29 23 -13
l20 -42 70 6 c39 3 76 10 83 15 15 13 16 60 1 75 -8 8 -8 17 0 32 20 37 -2 61
-56 61 -37 0 -44 -3 -35 -12z m70 -25 c2 -11 -4 -26 -13 -33 -12 -10 -15 -10
-16 4 -1 9 -2 22 -3 29 -3 18 4 29 17 24 7 -2 13 -13 15 -24z m-162 -7 c6 -25
-1 -46 -15 -46 -10 0 -21 51 -14 62 9 16 23 7 29 -16z m159 -86 c0 -18 -5 -35
-12 -37 -15 -5 -26 31 -18 58 10 31 30 17 30 -21z"/>
<path d="M1851 3128 c-11 -29 -30 -70 -40 -90 -19 -38 -19 -38 0 -38 11 0 18
4 15 9 -11 17 6 41 29 41 27 0 40 -26 24 -46 -9 -11 -7 -14 12 -14 13 0 42 -3
63 -7 27 -4 37 -3 32 5 -8 14 4 122 15 122 4 0 11 -10 15 -22 3 -13 16 -47 26
-77 24 -64 34 -55 43 41 4 38 13 75 21 82 11 12 10 15 -10 18 -22 4 -23 2 -18
-42 7 -71 -13 -70 -39 0 -19 52 -25 60 -47 60 -18 0 -23 -3 -16 -10 7 -7 7
-33 2 -78 -16 -120 -50 -118 -74 4 -9 43 -20 83 -24 87 -4 4 -17 -16 -29 -45z
m17 -56 c-18 -8 -25 4 -15 28 l10 25 6 -25 c4 -14 4 -26 -1 -28z"/>
<path d="M1442 3151 c-11 -7 -11 -9 1 -14 9 -3 19 -31 26 -68 9 -54 8 -66 -4
-79 -12 -11 -20 -12 -33 -4 -21 13 -44 89 -39 127 4 29 3 30 -31 20 -14 -3
-19 -9 -13 -13 7 -3 17 -35 24 -70 14 -68 42 -102 77 -93 39 10 45 29 31 109
-7 40 -9 78 -6 84 7 12 -15 13 -33 1z"/>
<path d="M2203 3102 c-3 -10 -8 -21 -11 -25 -2 -5 5 -3 16 4 12 7 24 11 27 7
9 -9 -35 -137 -51 -146 -10 -6 -6 -11 17 -19 26 -10 30 -10 25 2 -3 8 5 43 18
77 25 66 52 87 58 46 3 -22 4 -22 9 4 5 24 2 28 -48 46 -50 19 -55 19 -60 4z"/>
<path d="M1185 3075 c-22 -8 -42 -15 -44 -15 -3 0 3 -6 12 -12 22 -17 68 -134
60 -154 -5 -13 0 -13 33 1 22 9 45 19 52 22 14 6 16 39 3 48 -5 3 -11 -5 -13
-17 -5 -37 -41 -35 -55 2 -9 25 -9 32 2 36 8 3 19 3 24 0 6 -4 6 5 -1 25 -11
31 -12 31 -19 11 -5 -12 -12 -22 -17 -22 -12 0 -34 49 -27 61 9 13 55 11 55
-3 0 -6 2 -9 5 -6 9 8 -6 38 -19 38 -6 -1 -29 -7 -51 -15z"/>
<path d="M2357 3054 c8 -21 -56 -142 -77 -147 -10 -2 -3 -9 19 -21 18 -10 30
-12 26 -6 -4 6 1 27 11 45 17 32 19 32 41 18 21 -14 22 -17 7 -44 -8 -16 -22
-29 -31 -29 -23 0 -10 -10 59 -48 34 -19 55 -26 52 -18 -3 8 2 29 12 48 21 40
28 26 16 -30 -9 -38 -8 -42 17 -58 14 -10 50 -37 79 -62 44 -38 52 -41 52 -24
0 27 34 67 49 58 7 -5 10 -15 6 -24 -4 -11 3 -8 19 7 31 29 31 31 7 24 -10 -3
-21 -1 -24 4 -7 11 20 53 33 53 14 0 41 -31 35 -41 -4 -5 -2 -9 3 -9 6 0 12 7
16 15 4 10 -16 33 -61 70 -67 55 -87 66 -77 42 7 -20 -89 -122 -109 -114 -31
12 -22 69 18 110 48 49 46 57 -17 96 -30 18 -37 19 -32 6 5 -12 -40 -102 -72
-143 -1 -2 -12 1 -23 8 -21 11 -21 11 15 80 19 38 42 70 50 72 8 2 2 10 -17
21 -20 11 -29 13 -26 5 4 -13 -19 -68 -29 -68 -3 0 -14 5 -25 10 -18 10 -18
13 -4 39 8 16 20 31 27 33 7 3 -1 12 -19 22 -30 15 -32 15 -26 0z m203 -123
c0 -16 -38 -56 -46 -49 -11 12 13 58 31 58 8 0 15 -4 15 -9z m143 -93 c5 -17
-82 -128 -100 -128 -31 0 -23 31 23 85 48 55 68 66 77 43z"/>
<path d="M1094 3034 c-9 -4 -9 -12 1 -32 7 -15 16 -40 20 -57 l6 -30 -36 35
c-19 19 -33 41 -30 48 3 8 0 11 -7 8 -7 -3 -21 -9 -30 -12 -22 -8 -24 -24 -4
-24 8 0 41 -29 72 -65 32 -36 59 -63 62 -60 2 2 -5 43 -17 90 -12 47 -19 90
-16 95 6 10 -2 12 -21 4z"/>
<path d="M945 2949 c-20 -12 -24 -19 -13 -19 19 0 102 -126 93 -140 -10 -16 9
-11 35 10 14 11 19 19 11 18 -18 -4 -101 119 -94 138 6 17 5 17 -32 -7z"/>
<path d="M852 2882 c-39 -34 -42 -39 -29 -56 13 -18 14 -18 13 4 -1 13 4 24 9
26 11 4 64 -63 88 -109 l14 -27 24 19 c19 16 20 20 8 21 -17 0 -99 100 -99
121 0 7 9 9 27 4 27 -6 27 -6 9 14 -11 12 -20 21 -20 21 -1 0 -20 -17 -44 -38z"/>
<path d="M1615 2900 c-101 -11 -237 -47 -339 -91 -489 -209 -791 -717 -738
-1240 55 -541 445 -973 977 -1085 132 -28 376 -26 501 4 468 111 804 435 930
897 26 93 28 113 28 300 0 187 -2 207 -28 300 -60 220 -168 408 -321 560 -270
269 -629 395 -1010 355z m378 -41 c231 -48 421 -147 588 -306 167 -160 283
-356 340 -578 29 -110 31 -133 32 -285 0 -220 -33 -364 -125 -545 -82 -162
-215 -320 -362 -429 -196 -146 -453 -228 -711 -229 -547 0 -1016 364 -1163
903 -24 86 -26 113 -26 290 -1 174 2 205 23 285 117 446 447 775 886 884 108
27 119 28 278 30 106 1 162 -4 240 -20z"/>
<path d="M872 2155 c0 -16 2 -22 5 -12 2 9 2 23 0 30 -3 6 -5 -1 -5 -18z"/>
<path d="M938 2093 c12 -2 30 -2 40 0 9 3 -1 5 -23 4 -22 0 -30 -2 -17 -4z"/>
<path d="M2122 2069 c-24 -17 -42 -35 -40 -40 2 -5 23 -21 47 -36 27 -16 42
-20 39 -12 -3 8 -9 14 -14 13 -5 0 -20 11 -34 24 -14 14 -19 22 -12 18 7 -4
11 -3 10 3 -2 6 11 22 27 35 42 36 27 32 -23 -5z"/>
<path d="M1111 2064 c0 -11 3 -14 6 -6 3 7 2 16 -1 19 -3 4 -6 -2 -5 -13z"/>
<path d="M701 2054 c0 -11 3 -14 6 -6 3 7 2 16 -1 19 -3 4 -6 -2 -5 -13z"/>
<path d="M2143 2042 c-6 -4 13 -7 43 -8 30 0 54 4 54 8 0 10 -81 10 -97 0z"/>
<path d="M878 2023 c7 -3 16 -2 19 1 4 3 -2 6 -13 5 -11 0 -14 -3 -6 -6z"/>
<path d="M1077 2002 c-38 -7 -14 -17 42 -17 33 0 57 3 55 6 -5 8 -73 15 -97
11z"/>
<path d="M1259 1939 c-66 -47 -136 -126 -155 -175 -9 -24 -20 -42 -24 -39 -4
2 -5 -8 -3 -23 4 -21 2 -24 -6 -12 -9 13 -11 13 -11 -2 0 -10 4 -18 9 -18 6 0
11 -19 13 -42 3 -39 5 -43 28 -40 40 4 68 23 79 53 5 16 22 45 37 65 l28 36
-70 -3 c-80 -2 -81 0 -27 78 35 52 84 101 133 135 14 9 22 17 19 17 -3 1 -26
-13 -50 -30z m-39 -221 c0 -4 -6 -13 -12 -20 -7 -8 -20 -27 -28 -43 -15 -29
-66 -63 -77 -52 -9 9 -8 87 1 87 4 0 6 6 3 14 -3 8 -4 16 -2 18 6 6 115 3 115
-4z"/>
<path d="M1129 1673 c-1 -5 -1 -11 0 -15 0 -5 -3 -8 -9 -8 -5 0 -10 -4 -10
-10 0 -18 17 -10 34 15 14 22 15 25 1 25 -8 0 -16 -3 -16 -7z"/>
<path d="M1520 1961 c0 -6 9 -20 20 -31 11 -11 16 -20 10 -20 -5 0 -10 -20
-10 -45 0 -25 5 -45 10 -45 6 0 10 -5 10 -11 0 -5 -4 -7 -10 -4 -5 3 -10 -3
-10 -15 0 -28 -46 -163 -75 -222 -13 -25 -21 -49 -18 -52 4 -3 2 -6 -4 -6 -6
0 -14 -7 -17 -16 -11 -28 12 -4 54 56 22 34 38 65 35 70 -4 6 -2 10 4 10 11 0
42 54 39 67 0 4 4 21 10 36 14 33 16 151 3 143 -5 -4 -7 3 -4 14 3 12 -5 31
-21 51 -14 17 -26 26 -26 20z"/>
<path d="M965 1934 c-14 -15 -25 -32 -25 -38 0 -6 7 -2 15 9 8 11 22 28 31 38
10 9 14 17 10 17 -4 0 -18 -12 -31 -26z"/>
<path d="M1226 1943 c-6 -14 -5 -15 5 -6 7 7 10 15 7 18 -3 3 -9 -2 -12 -12z"/>
<path d="M1189 1913 c-13 -16 -12 -17 4 -4 9 7 17 15 17 17 0 8 -8 3 -21 -13z"/>
<path d="M929 1858 c-5 -66 12 -117 42 -136 14 -9 12 -3 -6 25 -25 36 -29 53
-25 106 1 15 -1 27 -4 27 -3 0 -7 -10 -7 -22z"/>
<path d="M2311 1780 c-23 -39 -39 -76 -35 -82 5 -7 3 -8 -6 -3 -10 6 -12 4 -7
-9 4 -10 3 -15 -3 -11 -26 16 -63 -101 -38 -122 11 -10 13 -7 13 11 -1 12 -5
27 -9 34 -4 8 -2 10 7 6 9 -3 20 5 30 23 8 15 24 46 36 68 11 21 30 49 41 62
12 14 15 23 7 23 -8 0 -7 4 3 10 8 5 11 10 6 10 -6 0 -1 7 10 15 15 11 16 15
4 15 -10 1 -9 4 5 10 20 8 20 9 -1 9 -16 1 -32 -17 -63 -69z m11 -22 c-7 -7
-12 -8 -12 -2 0 6 3 14 7 17 3 4 9 5 12 2 2 -3 -1 -11 -7 -17z"/>
<path d="M1330 1821 c0 -22 21 -33 40 -21 18 11 8 33 -18 37 -16 2 -22 -2 -22
-16z m33 -6 c-3 -9 -8 -14 -10 -11 -3 3 -2 9 2 15 9 16 15 13 8 -4z"/>
<path d="M1090 1790 c-6 -11 -8 -20 -6 -20 3 0 10 9 16 20 6 11 8 20 6 20 -3
0 -10 -9 -16 -20z"/>
<path d="M1749 1793 c-13 -16 -12 -17 4 -4 9 7 17 15 17 17 0 8 -8 3 -21 -13z"/>
<path d="M2106 1744 c-7 -29 -77 -154 -104 -186 -14 -16 -13 -18 10 -18 18 0
30 10 48 43 12 23 32 52 44 65 12 13 20 26 18 28 -2 2 -1 18 3 34 4 16 2 37
-3 46 -8 14 -10 12 -16 -12z m-1 -83 c-9 -8 -36 -10 -30 -2 2 4 11 8 20 8 8 0
13 -3 10 -6z m-43 -48 c-6 -2 -9 -10 -6 -15 4 -7 2 -8 -5 -4 -13 9 -5 26 12
25 9 0 8 -2 -1 -6z m-12 -37 c0 -2 -7 -9 -15 -16 -13 -11 -14 -10 -9 4 5 14
24 23 24 12z"/>
<path d="M2209 1763 c-1 -5 -1 -12 0 -16 1 -5 -3 -6 -8 -3 -5 4 -20 -8 -33
-26 l-23 -33 35 25 c47 32 65 60 40 60 -5 0 -11 -3 -11 -7z"/>
<path d="M1875 1737 c-24 -14 -39 -30 -39 -40 2 -13 -1 -15 -11 -7 -9 7 -16 6
-24 -4 -9 -10 -8 -16 5 -27 14 -11 17 -10 27 6 5 11 28 37 50 58 47 43 46 45
-8 14z"/>
<path d="M1981 1754 c-2 -18 -34 -50 -68 -68 -45 -23 -42 -28 5 -10 49 20 75
47 69 70 -3 11 -5 14 -6 8z"/>
<path d="M2573 1742 c-2 -10 -23 -30 -46 -45 -50 -33 -40 -35 19 -5 33 16 44
27 44 45 0 27 -10 30 -17 5z"/>
<path d="M2736 1713 c-3 -26 -14 -55 -23 -65 -11 -13 -13 -22 -6 -29 14 -14
46 18 39 38 -3 8 -2 11 4 8 16 -10 31 31 21 58 -16 42 -28 39 -35 -10z"/>
<path d="M2868 1730 c-33 -31 -34 -35 -9 -37 24 -2 44 20 39 44 -3 16 -6 15
-30 -7z"/>
<path d="M2438 1716 c-24 -19 -52 -45 -60 -58 -18 -27 -16 -74 4 -94 12 -12
13 -10 12 14 -1 15 6 41 14 57 9 17 15 33 14 38 -1 4 2 6 6 5 4 -2 23 14 41
35 41 46 28 48 -31 3z"/>
<path d="M833 1690 c0 -25 2 -35 4 -22 2 12 2 32 0 45 -2 12 -4 2 -4 -23z"/>
<path d="M1669 1703 c-13 -16 -12 -17 4 -4 16 13 21 21 13 21 -2 0 -10 -8 -17
-17z"/>
<path d="M861 1654 c0 -11 3 -14 6 -6 3 7 2 16 -1 19 -3 4 -6 -2 -5 -13z"/>
<path d="M1783 1646 c4 -9 3 -15 -2 -12 -5 3 -11 -3 -14 -14 -3 -11 -1 -20 4
-20 4 0 6 -7 3 -15 -4 -9 0 -15 9 -15 8 0 15 10 15 23 1 12 3 31 4 41 2 10 -3
21 -11 24 -10 3 -12 0 -8 -12z"/>
<path d="M2581 1593 c-8 -18 -9 -29 -1 -37 7 -7 10 -5 10 7 0 9 3 16 8 16 20
-3 30 3 35 21 8 32 -37 27 -52 -7z"/>
<path d="M2700 1590 c0 -10 7 -23 15 -30 13 -11 15 -8 15 17 0 20 -5 30 -15
30 -8 0 -15 -8 -15 -17z"/>
<path d="M1607 1585 c40 -17 94 -65 74 -65 -8 0 -43 -14 -78 -31 -47 -23 -70
-29 -93 -24 -16 4 -30 12 -30 18 0 7 -4 6 -10 -3 -11 -18 9 -28 57 -29 35 -1
83 17 83 31 0 5 5 6 10 3 6 -3 10 -1 10 4 0 6 3 10 8 9 4 -2 22 3 40 11 l33
14 -23 24 c-27 30 -70 53 -95 53 -11 -1 -5 -6 14 -15z"/>
<path d="M1552 1535 c-7 -8 -9 -15 -4 -15 5 0 15 7 22 15 16 19 -1 19 -18 0z"/>
<path d="M1370 1409 c0 -5 5 -7 10 -4 6 3 10 8 10 11 0 2 -4 4 -10 4 -5 0 -10
-5 -10 -11z"/>
<path d="M2215 1359 c-27 -16 -49 -33 -48 -38 1 -5 -5 -8 -15 -7 -9 0 -16 -4
-15 -11 2 -7 -4 -10 -12 -7 -8 4 -15 1 -15 -5 0 -6 7 -11 16 -11 8 0 12 -5 9
-10 -4 -6 -10 -8 -13 -6 -4 2 -19 -4 -32 -15 -14 -10 -19 -19 -12 -19 16 0 16
-17 -1 -17 -7 0 -13 11 -13 23 0 12 4 20 10 17 5 -4 6 -1 1 6 -6 10 -11 10
-22 -2 -13 -13 -7 -28 47 -123 81 -144 81 -145 128 -117 20 12 36 29 36 37 -1
9 2 13 7 10 5 -3 9 67 9 160 0 91 -3 166 -7 165 -5 0 -30 -13 -58 -30z m45 0
c-13 -8 -13 -10 0 -19 13 -8 13 -10 -2 -10 -23 0 -28 22 -9 37 9 6 18 9 21 7
2 -3 -2 -9 -10 -15z m-37 -30 c-6 -6 -9 -18 -6 -25 7 -20 -1 -17 -22 6 -15 17
-16 20 -3 15 9 -4 19 -2 23 4 3 6 9 11 13 11 3 0 1 -5 -5 -11z m-43 -69 c0 -5
-4 -10 -10 -10 -5 0 -10 5 -10 10 0 6 5 10 10 10 6 0 10 -4 10 -10z m40 -34
c0 -3 -4 -8 -10 -11 -5 -3 -10 -1 -10 4 0 6 5 11 10 11 6 0 10 -2 10 -4z
m-110 -40 c0 -3 -4 -8 -10 -11 -5 -3 -10 -1 -10 4 0 6 5 11 10 11 6 0 10 -2
10 -4z m15 -17 c-4 -13 -3 -19 2 -16 5 4 10 0 10 -8 0 -8 -4 -12 -8 -9 -4 2
-9 1 -12 -3 -2 -5 -2 -2 -1 5 2 6 -1 12 -6 12 -6 0 -5 9 2 20 16 26 21 25 13
-1z m75 -130 c0 8 3 12 6 8 3 -3 3 -11 -2 -18 -5 -9 -11 -7 -21 6 -7 11 -13
24 -13 29 1 6 7 0 15 -14 8 -14 14 -19 15 -11z"/>
<path d="M2085 1279 c-10 -15 3 -25 16 -12 7 7 7 13 1 17 -6 3 -14 1 -17 -5z"/>
<path d="M1732 1269 c-38 -8 -80 -44 -125 -108 -21 -31 -25 -42 -14 -38 11 4
17 1 17 -8 0 -10 -6 -12 -17 -8 -16 6 -16 5 -4 -10 7 -9 15 -17 17 -17 2 0 26
20 54 45 46 41 55 45 94 43 24 -2 41 -7 38 -12 -3 -5 2 -6 12 -3 9 4 15 3 12
-1 -2 -4 28 -27 67 -52 40 -24 98 -64 130 -89 l58 -45 27 27 27 27 -19 35
c-11 19 -23 35 -27 35 -9 0 -1 -28 12 -45 4 -6 3 -17 -3 -25 -8 -12 -9 -12 -4
2 6 20 -10 35 -17 16 -3 -7 -4 1 -3 17 1 17 5 35 9 41 4 7 -3 27 -16 45 -12
19 -28 46 -36 62 -12 23 -21 27 -56 27 -23 0 -64 7 -91 16 -84 27 -108 31
-142 23z m5 -24 c0 -8 -4 -12 -9 -9 -5 3 -6 10 -3 15 9 13 12 11 12 -6z m-30
-31 c-3 -3 -12 -4 -19 -1 -8 3 -5 6 6 6 11 1 17 -2 13 -5z m37 -2 c3 -5 -1 -9
-9 -9 -8 0 -12 4 -9 9 3 4 7 8 9 8 2 0 6 -4 9 -8z m256 -12 c9 -16 8 -19 -7
-14 -17 5 -17 5 0 -9 10 -8 14 -17 10 -20 -5 -3 -14 3 -21 13 -7 12 -8 21 -2
25 6 4 8 11 5 16 -4 5 -4 9 -1 9 3 0 10 -9 16 -20z m-215 -5 c-16 -8 -37 -14
-45 -14 -8 0 -1 6 15 14 17 7 37 13 45 13 8 0 2 -6 -15 -13z m-104 -2 c-10 -4
-10 -7 -2 -13 9 -5 8 -10 -2 -18 -11 -9 -13 -7 -11 11 3 29 2 27 17 26 8 0 8
-2 -2 -6z m-36 -37 c1 -14 -5 -23 -16 -23 -11 -1 -16 5 -14 15 1 9 8 16 15 14
8 -2 10 3 6 15 -4 9 -3 14 1 9 4 -4 8 -18 8 -30z m376 -28 c-3 -21 -6 -26 -9
-15 -3 17 3 47 11 47 2 0 1 -15 -2 -32z m-97 4 c19 2 33 1 30 -3 -6 -11 -64
-17 -70 -7 -3 5 -9 6 -13 4 -4 -3 -8 1 -8 9 0 11 4 12 14 4 7 -6 28 -9 47 -7z
m56 -16 c0 -3 -4 -8 -10 -11 -5 -3 -10 -1 -10 4 0 6 5 11 10 11 6 0 10 -2 10
-4z m51 -66 c13 7 17 6 15 -5 -5 -33 -23 -36 -41 -8 -10 15 -12 23 -5 16 9 -8
19 -9 31 -3z"/>
<path d="M2020 1029 c0 -5 5 -7 10 -4 6 3 10 8 10 11 0 2 -4 4 -10 4 -5 0 -10
-5 -10 -11z"/>
<path d="M1430 929 c-15 -26 -6 -49 18 -49 20 0 46 45 37 61 -11 16 -44 9 -55
-12z m30 1 c0 -5 -5 -10 -11 -10 -5 0 -7 5 -4 10 3 6 8 10 11 10 2 0 4 -4 4
-10z"/>
<path d="M1533 917 c-14 -15 -19 -34 -17 -61 1 -28 -1 -35 -9 -27 -15 15 -27
14 -27 -3 0 -32 25 -28 56 9 29 32 32 41 22 59 -10 18 -9 19 4 8 13 -10 17
-10 21 3 4 8 -1 19 -12 24 -14 8 -23 5 -38 -12z"/>
<path d="M1490 865 c-10 -12 -10 -15 4 -15 9 0 16 7 16 15 0 8 -2 15 -4 15 -2
0 -9 -7 -16 -15z"/>
<path d="M1576 830 c-29 -45 -33 -65 -11 -73 9 -4 26 8 45 31 30 37 41 70 18
56 -9 -5 -9 -2 1 9 12 15 11 17 -6 17 -13 0 -31 -16 -47 -40z m34 -24 c0 -2
-6 -9 -14 -15 -11 -9 -16 -9 -22 0 -4 7 -3 9 4 5 6 -3 13 -2 17 4 6 10 15 14
15 6z"/>
<path d="M1641 769 c-20 -33 -18 -59 4 -59 20 0 65 58 59 75 -10 25 -43 17
-63 -16z m35 -11 c-2 -14 -9 -18 -28 -18 -8 0 -5 7 6 15 24 18 25 18 22 3z"/>
<path d="M722 2774 c-20 -20 -30 -34 -20 -31 11 4 32 -12 65 -49 26 -30 50
-62 53 -70 4 -12 11 -10 30 11 14 15 18 24 9 20 -16 -6 -67 40 -56 51 3 4 22
-3 41 -15 28 -18 39 -20 56 -11 22 12 28 32 7 24 -23 -9 -87 25 -87 46 0 19
-36 60 -52 60 -5 0 -25 -16 -46 -36z m60 -11 c22 -19 24 -43 4 -43 -17 0 -48
39 -40 52 8 12 15 10 36 -9z"/>
<path d="M2797 2730 c-17 -17 -17 -17 8 -13 14 3 25 1 25 -4 0 -18 -110 -114
-121 -107 -6 3 -3 -6 7 -21 13 -20 19 -24 23 -14 3 8 29 36 58 63 52 48 80 53
67 13 -7 -22 -6 -22 15 -3 11 11 21 20 21 20 0 1 -19 20 -42 43 -41 39 -44 40
-61 23z"/>
<path d="M620 2668 c-20 -25 -27 -39 -17 -35 19 7 127 -85 127 -109 0 -8 16 3
35 25 39 43 40 48 19 76 -14 18 -14 18 -8 -11 4 -21 1 -34 -11 -44 -14 -12
-20 -10 -42 12 -26 27 -23 54 5 43 12 -5 12 -1 -3 15 l-19 21 -8 -21 c-6 -17
-11 -19 -27 -10 -30 16 -35 29 -15 51 13 14 20 16 31 8 8 -7 13 -8 13 -1 0 9
-23 22 -38 22 -4 0 -23 -19 -42 -42z"/>
<path d="M565 2592 c-6 -4 -21 -22 -34 -39 -21 -31 -21 -33 -4 -33 22 0 129
-78 126 -91 -6 -19 15 -8 31 16 19 28 21 44 4 27 -8 -8 -18 -6 -40 10 -21 15
-26 24 -19 31 18 18 12 45 -15 66 -29 23 -34 24 -49 13z m39 -41 c28 -31 10
-45 -25 -20 -28 20 -31 39 -5 39 7 0 21 -9 30 -19z"/>
<path d="M2929 2541 c-13 -10 -30 -16 -37 -14 -22 8 -61 -6 -72 -27 -13 -24 3
-60 25 -60 9 0 15 -10 15 -25 0 -18 5 -25 18 -25 13 0 18 7 18 22 -1 17 7 24
34 32 43 12 44 12 35 25 -4 7 -14 5 -31 -5 -26 -18 -30 -13 -14 17 6 10 21 19
34 19 28 0 51 24 42 45 -7 20 -38 19 -67 -4z m51 -16 c-7 -8 -16 -15 -21 -15
-5 0 -6 7 -3 15 4 8 13 15 21 15 13 0 13 -3 3 -15z m-80 -22 c-1 -18 -38 -55
-49 -49 -15 10 -14 22 5 40 16 16 44 22 44 9z"/>
<path d="M466 2455 c-27 -20 -25 -69 3 -99 51 -54 125 -60 151 -13 13 24 13
30 0 54 -34 60 -112 89 -154 58z m71 -26 c60 -22 94 -79 57 -93 -9 -3 -35 2
-57 12 -100 45 -100 119 0 81z"/>
<path d="M3000 2358 c-26 -13 -51 -35 -59 -52 -12 -25 -11 -31 6 -55 11 -14
29 -27 39 -28 10 -2 13 0 6 3 -44 20 -31 81 24 108 43 20 68 20 84 1 12 -15 5
-55 -11 -55 -5 0 -9 -5 -9 -10 0 -6 11 -3 25 6 29 19 31 40 7 71 -26 34 -61
37 -112 11z"/>
<path d="M381 2295 c-26 -34 -21 -60 22 -97 35 -31 92 -46 116 -31 9 6 22 21
30 35 13 23 13 29 -2 52 -24 35 -59 57 -105 63 -34 5 -42 2 -61 -22z m116 -30
c45 -27 58 -60 27 -72 -23 -8 -89 14 -121 41 -61 52 14 77 94 31z"/>
<path d="M3150 2238 c0 -11 -21 -22 -71 -38 -39 -12 -78 -19 -85 -16 -17 7
-17 6 1 -35 8 -19 14 -27 15 -17 0 18 56 42 65 27 4 -5 3 -9 -2 -9 -4 0 -21
-11 -37 -23 l-29 -23 16 -50 c8 -27 18 -61 21 -76 5 -23 12 -28 34 -27 22 1
23 3 6 6 -13 2 -24 14 -27 28 -5 31 -1 35 40 35 23 0 33 -5 33 -15 0 -8 -5
-15 -12 -15 -6 0 -9 -2 -6 -5 3 -3 20 -2 38 2 31 6 32 7 11 15 -12 4 -21 13
-19 20 5 13 53 29 62 20 11 -10 6 -50 -6 -55 -8 -3 -7 -6 4 -6 26 -1 29 13 16
68 -9 39 -14 47 -22 37 -13 -16 -143 -49 -157 -41 -34 21 30 93 71 80 27 -8
70 19 70 44 0 24 -29 92 -30 69z m10 -63 c0 -17 -43 -31 -61 -19 -9 5 -7 11 6
21 25 17 55 17 55 -2z"/>
<path d="M325 2146 c-23 -32 -18 -65 14 -97 25 -24 38 -29 79 -29 35 0 54 5
65 18 18 20 23 82 7 82 -5 0 -10 -10 -10 -23 0 -31 -18 -47 -54 -47 -40 0 -96
34 -96 59 0 24 25 45 45 37 8 -3 15 -2 15 3 0 5 -11 11 -25 14 -18 3 -30 -2
-40 -17z"/>
<path d="M270 1937 c0 -20 4 -22 40 -19 74 7 81 -8 15 -32 -53 -20 -60 -26
-62 -52 -1 -16 0 -23 3 -16 7 15 20 15 101 1 56 -10 64 -14 61 -32 -2 -16 -19
-25 -74 -42 -119 -36 -118 -34 -19 -67 50 -17 93 -35 97 -42 5 -6 8 0 8 14 0
22 -5 26 -27 25 -23 0 -28 4 -28 25 0 21 5 25 28 25 23 -1 27 3 27 26 0 15 3
42 7 60 5 29 4 32 -8 23 -13 -11 -113 -3 -126 10 -2 2 30 17 71 32 42 16 76
32 76 36 0 3 -26 9 -57 13 -86 9 -113 16 -113 26 0 5 -4 9 -10 9 -5 0 -10 -10
-10 -23z m100 -236 c0 -14 -5 -18 -20 -14 -25 7 -26 20 -2 26 9 3 18 5 20 6 1
0 2 -8 2 -18z"/>
<path d="M3225 1942 c-5 -5 -41 -15 -78 -21 -53 -9 -72 -9 -83 0 -26 22 -5
-72 22 -101 20 -20 34 -25 74 -24 80 1 102 35 81 127 -4 18 -10 25 -16 19z m5
-67 c0 -31 -27 -45 -87 -47 -34 0 -50 4 -60 18 -17 23 -7 32 48 43 82 16 99
14 99 -14z"/>
<path d="M3070 1735 c0 -30 3 -36 12 -27 17 17 165 16 171 0 3 -7 5 5 5 27 0
22 -2 34 -5 28 -6 -17 -154 -18 -171 -1 -9 9 -12 3 -12 -27z"/>
<path d="M3223 1683 c9 -2 17 -11 17 -19 0 -18 -140 -20 -158 -2 -9 9 -12 3
-12 -27 0 -30 3 -36 12 -27 13 13 97 16 136 6 26 -7 29 -31 5 -37 -11 -3 -7
-5 10 -6 27 -1 27 0 27 59 0 59 0 60 -27 59 -17 -1 -21 -3 -10 -6z"/>
<path d="M254 1614 c3 -9 6 -21 6 -27 0 -9 2 -9 8 -1 5 8 17 8 42 -1 l35 -12
-33 -17 c-18 -9 -37 -14 -42 -11 -6 4 -10 -7 -10 -24 l0 -30 49 28 c60 36 107
47 126 31 12 -10 15 -9 15 3 0 32 -11 48 -26 36 -19 -15 -79 -7 -133 19 -34
17 -42 18 -37 6z"/>
<path d="M417 1498 c27 -13 40 -47 23 -58 -16 -10 -134 -22 -152 -15 -11 4
-13 -2 -10 -30 3 -28 7 -33 16 -22 9 12 116 37 155 37 7 0 11 -10 9 -22 -2
-16 -27 -39 -78 -73 l-75 -50 95 -5 c110 -6 120 -16 75 -81 -29 -41 -40 -45
-93 -30 -31 9 -33 8 -26 -11 11 -36 44 -103 44 -91 0 18 142 74 157 61 19 -15
16 -4 -17 72 -16 38 -30 75 -30 84 0 8 -4 18 -10 21 -5 3 -10 1 -10 -5 0 -6
-10 -10 -22 -8 -32 4 -33 52 -1 56 19 3 20 7 12 35 -5 18 -12 55 -15 82 -7 53
-16 65 -49 64 -19 0 -19 -1 2 -11z m11 -216 c2 -7 -7 -12 -23 -12 -24 0 -26 2
-15 15 14 17 31 16 38 -3z m108 -114 c8 -12 -21 -38 -43 -38 -10 0 -10 6 3 25
18 27 29 31 40 13z m-98 -47 c10 -6 5 -12 -18 -21 -27 -11 -33 -11 -40 0 -5 8
-6 18 -4 22 7 10 45 10 62 -1z"/>
<path d="M3061 1497 c-18 -18 -12 -55 11 -71 32 -23 62 -20 97 10 33 28 65 26
59 -3 -2 -9 -14 -20 -28 -24 -23 -7 -23 -7 6 -8 35 -1 47 19 33 57 -13 33 -70
33 -106 0 -26 -24 -58 -20 -58 7 0 12 9 21 25 25 l25 6 -27 6 c-15 3 -32 0
-37 -5z"/>
<path d="M3036 1358 c-20 -29 -20 -48 2 -74 24 -31 57 -45 103 -46 77 -1 98
64 38 114 -44 37 -119 40 -143 6z m124 -26 c38 -18 46 -48 19 -65 -11 -7 -33
-5 -73 8 -56 18 -78 38 -69 63 7 18 82 15 123 -6z"/>
<path d="M2993 1215 c-16 -11 -23 -26 -23 -50 0 -44 18 -55 22 -13 3 31 6 33
43 36 56 5 105 -22 105 -59 0 -30 -16 -40 -52 -32 -16 4 -20 3 -13 -5 6 -6 21
-13 35 -14 29 -4 55 40 46 77 -14 54 -119 93 -163 60z"/>
<path d="M2901 1034 c-35 -61 -41 -78 -31 -89 7 -8 18 -15 24 -14 7 0 6 2 -1
6 -18 7 -16 38 2 53 12 10 20 9 40 -4 29 -19 31 -31 8 -44 -14 -9 -14 -11 5
-21 19 -10 22 -9 22 9 0 24 17 25 45 4 16 -12 17 -18 8 -32 -6 -9 -18 -16 -27
-16 -21 2 -20 -3 3 -16 17 -8 23 -4 45 34 30 51 31 57 12 50 -20 -8 -135 67
-136 88 0 9 4 19 8 22 10 6 146 -62 151 -75 1 -6 9 -2 17 8 15 20 18 37 5 29
-9 -6 -114 47 -142 70 -13 12 -21 4 -58 -62z"/>
<path d="M590 1047 c0 -9 -11 -35 -25 -57 -23 -37 -29 -40 -71 -40 -32 0 -44
-4 -41 -12 2 -7 11 -11 18 -9 8 2 25 6 39 9 24 5 24 5 8 -19 -9 -13 -21 -23
-28 -21 -6 1 -3 -12 7 -30 15 -29 17 -31 22 -13 3 11 15 35 26 53 18 30 23 32
72 32 51 0 53 1 41 20 -7 11 -14 16 -16 10 -4 -11 -52 -14 -52 -2 0 12 14 29
27 33 9 3 7 12 -7 34 -14 22 -20 25 -20 12z"/>
<path d="M654 905 c-19 -14 -19 -14 1 -9 13 3 28 -2 38 -14 17 -19 17 -21 -9
-41 -37 -29 -51 -26 -45 12 2 9 -36 -9 -43 -22 -4 -5 3 -7 14 -4 26 7 27 -18
0 -42 -16 -15 -22 -16 -36 -5 -8 8 -13 21 -11 31 3 12 0 16 -9 12 -22 -8 -16
-25 21 -67 22 -25 35 -33 35 -23 0 22 109 107 129 99 8 -3 1 14 -19 41 -18 26
-36 47 -40 47 -3 0 -15 -7 -26 -15z"/>
<path d="M2812 896 c-20 -25 -21 -34 -6 -32 18 1 124 -85 120 -99 -2 -5 -13
-9 -25 -8 -26 3 -27 -3 -2 -16 16 -9 25 -4 55 33 l35 44 -20 18 c-20 18 -20
18 -14 -9 11 -42 -12 -34 -78 27 -38 35 -60 49 -65 42z"/>
<path d="M773 799 c3 -11 -12 -34 -48 -69 -53 -52 -82 -59 -69 -17 6 21 6 21
-13 4 -20 -17 -20 -18 17 -58 33 -36 40 -40 59 -30 28 16 27 23 -4 15 -18 -4
-25 -2 -25 7 0 19 108 112 120 104 21 -13 9 12 -17 36 -17 16 -24 19 -20 8z"/>
<path d="M2720 785 c-17 -18 -20 -25 -8 -25 8 0 24 -10 35 -22 28 -31 65 -106
58 -118 -3 -6 -2 -10 4 -10 21 0 21 20 0 55 -12 20 -19 38 -17 40 2 3 21 -4
41 -14 34 -17 37 -17 52 -1 14 16 11 18 -45 35 -60 18 -107 55 -95 74 11 19
-1 12 -25 -14z"/>
<path d="M833 733 c5 -7 5 -29 1 -48 -4 -26 -15 -40 -36 -51 -33 -17 -51 -53
-35 -72 6 -7 22 -22 37 -32 22 -16 27 -17 26 -5 -1 19 73 112 97 120 20 7 15
20 -16 36 -12 7 -19 8 -15 4 9 -9 -29 -65 -43 -65 -5 0 -2 17 7 38 22 52 22
52 -6 70 -13 9 -21 11 -17 5z m-6 -146 c-16 -24 -47 -35 -47 -18 0 6 9 20 20
31 27 27 47 16 27 -13z"/>
<path d="M2582 658 c-36 -25 -41 -32 -32 -49 12 -22 25 -26 16 -4 -5 14 17 45
34 45 12 0 90 -107 90 -125 0 -14 2 -14 23 0 l24 15 -45 48 c-24 26 -49 59
-56 73 l-11 27 -43 -30z"/>
<path d="M939 619 c-13 -10 -19 -19 -13 -19 5 0 15 5 20 10 8 8 17 5 32 -7
l21 -18 -23 -29 c-24 -29 -53 -28 -42 1 8 19 -11 6 -24 -17 -8 -15 -6 -17 9
-13 27 7 32 -9 11 -37 -16 -21 -22 -23 -37 -14 -10 7 -17 19 -15 28 4 21 -5
20 -17 -2 -8 -16 -3 -24 35 -51 26 -18 44 -26 41 -19 -5 16 71 128 94 137 13
5 8 12 -25 37 -42 32 -42 32 -67 13z"/>
<path d="M2485 590 c-17 -11 -24 -20 -15 -20 8 0 35 -30 58 -67 34 -50 41 -68
31 -74 -8 -5 -21 -1 -33 9 -19 17 -19 16 -2 -10 l18 -28 47 32 c25 17 47 32
48 32 1 1 -5 12 -13 26 l-14 25 2 -24 c2 -13 -2 -26 -9 -28 -15 -5 -96 116
-89 133 7 18 7 18 -29 -6z"/>
<path d="M2378 525 c-42 -28 -52 -52 -43 -95 9 -40 52 -90 76 -90 11 0 38 9
60 20 36 19 38 22 24 37 -24 23 -77 132 -70 143 11 17 -9 11 -47 -15z m55 -80
c33 -62 34 -66 16 -76 -38 -20 -89 36 -89 99 0 66 31 56 73 -23z"/>
<path d="M1050 484 c-30 -31 -64 -59 -75 -63 -19 -8 -19 -8 3 -20 18 -9 22 -9
22 2 0 7 16 29 36 48 28 26 35 29 31 14 -3 -11 -9 -32 -13 -48 -3 -15 -12 -31
-20 -35 -9 -5 -5 -12 18 -25 23 -13 29 -14 25 -3 -3 8 5 53 18 100 13 47 20
86 16 86 -3 0 -31 -25 -61 -56z"/>
<path d="M2266 472 c-7 -12 3 -42 14 -42 16 0 19 17 6 35 -8 11 -15 14 -20 7z"/>
<path d="M1741 330 c-11 -38 -14 -40 -54 -40 l-41 0 33 -27 c29 -25 31 -31 22
-56 -17 -45 -13 -50 21 -26 l31 23 38 -22 39 -22 -10 25 c-17 44 -12 63 21 82
l31 18 -44 5 c-38 4 -44 9 -53 37 -16 47 -20 47 -34 3z"/>
</g>
</svg>
